<svg viewBox="0 0 84 45" xmlns="http://www.w3.org/2000/svg" xmlns:xlink="http://www.w3.org/1999/xlink" width="84.000000" height="45.000000" fill="none" customFrame="#000000">
	<defs>
		<linearGradient id="paint_linear_0" x1="0" x2="15.1351366" y1="23.8378372" y2="23.8378315" gradientUnits="userSpaceOnUse">
			<stop stop-color="rgb(73,169,255)" offset="0" stop-opacity="1" />
			<stop stop-color="rgb(252,124,217)" offset="1" stop-opacity="1" />
		</linearGradient>
	</defs>
	<rect id="logo" width="84.000000" height="45.000000" x="0.000000" y="0.000000" />
	<path id="Fit" d="M1.86426 20.5532L1.86426 5.53071L10.9254 5.53071L10.9254 7.32994L3.96697 7.32994L3.96697 11.8605L10.145 11.8605L10.145 13.6381L3.96697 13.6381L3.96697 20.5532L1.86426 20.5532ZM13.5074 5.53071L15.6101 5.53071L15.6101 20.5532L13.5074 20.5532L13.5074 5.53071ZM29.3656 5.53071L29.3656 7.35161L24.6399 7.35161L24.6399 20.5532L22.5372 20.5532L22.5372 7.35161L17.8116 7.35161L17.8116 5.53071L29.3656 5.53071Z" fill="rgb(43.9887,50.5617,47.2752)" fill-rule="nonzero" />
	<path id="studio" d="M6.79981 39.4911C9.03369 39.4911 10.1506 38.7269 10.1506 37.1984C10.1506 36.7281 10.0477 36.3313 9.842 36.008C9.65094 35.67 9.3864 35.3834 9.04838 35.1482C8.71036 34.8984 8.3209 34.6853 7.88001 34.5089C7.45381 34.3326 6.99821 34.1562 6.51323 33.9799C5.95476 33.7888 5.42568 33.5757 4.926 33.3406C4.42632 33.0907 3.99277 32.8041 3.62535 32.4808C3.25794 32.1428 2.96401 31.746 2.74356 31.2904C2.53781 30.8348 2.43493 30.2837 2.43493 29.637C2.43493 28.2996 2.89053 27.2562 3.80171 26.5067C4.7129 25.7571 5.96945 25.3824 7.57138 25.3824C8.49726 25.3824 9.33497 25.4853 10.0845 25.691C10.8487 25.8821 11.4072 26.0952 11.7599 26.3303L11.0765 28.0718C10.7679 27.8808 10.3049 27.6971 9.68768 27.5207C9.08512 27.3297 8.37969 27.2341 7.57138 27.2341C7.15988 27.2341 6.77777 27.2782 6.42505 27.3664C6.07233 27.4546 5.7637 27.5869 5.49917 27.7632C5.23463 27.9396 5.02153 28.1674 4.85987 28.4466C4.7129 28.7111 4.63942 29.0271 4.63942 29.3945C4.63942 29.806 4.72025 30.1514 4.88191 30.4306C5.04357 30.7099 5.27137 30.9597 5.5653 31.1802C5.85923 31.3859 6.19725 31.577 6.57936 31.7533C6.97617 31.9297 7.40972 32.1061 7.88001 32.2824C8.54135 32.5469 9.14391 32.8115 9.68768 33.076C10.2462 33.3406 10.7238 33.6565 11.1206 34.024C11.5321 34.3914 11.8481 34.8323 12.0685 35.3466C12.289 35.8463 12.3992 36.4562 12.3992 37.1764C12.3992 38.5137 11.9069 39.5425 10.9222 40.2626C9.95222 40.9828 8.57809 41.3428 6.79981 41.3428C6.19725 41.3428 5.63878 41.2987 5.1244 41.2106C4.62472 41.1371 4.17648 41.0489 3.77967 40.946C3.38286 40.8285 3.03749 40.7109 2.74356 40.5933C2.46433 40.461 2.24388 40.3508 2.08222 40.2626L2.72152 38.4991C3.05954 38.6901 3.57392 38.9032 4.26465 39.1384C4.95539 39.3735 5.80044 39.4911 6.79981 39.4911ZM25.1902 25.7351L25.1902 27.5869L20.3844 27.5869L20.3844 41.0122L18.2461 41.0122L18.2461 27.5869L13.4403 27.5869L13.4403 25.7351L25.1902 25.7351ZM33.1358 41.3428C32.1364 41.3428 31.2693 41.1885 30.5345 40.8799C29.7997 40.5713 29.1971 40.1524 28.7268 39.6233C28.2566 39.0796 27.9038 38.4403 27.6687 37.7054C27.4482 36.9706 27.338 36.177 27.338 35.3246L27.338 25.7351L29.4764 25.7351L29.4764 35.0821C29.4764 36.6105 29.8144 37.7201 30.4904 38.4109C31.1665 39.1016 32.0483 39.447 33.1358 39.447C33.6796 39.447 34.1719 39.3661 34.6128 39.2045C35.0684 39.0281 35.4579 38.7636 35.7812 38.4109C36.1045 38.0582 36.3544 37.6099 36.5307 37.0661C36.7071 36.5077 36.7953 35.8463 36.7953 35.0821L36.7953 25.7351L38.9336 25.7351L38.9336 35.3246C38.9336 36.177 38.816 36.9706 38.5809 37.7054C38.3604 38.4403 38.0077 39.0796 37.5227 39.6233C37.0524 40.1524 36.4499 40.5713 35.7151 40.8799C34.9949 41.1885 34.1352 41.3428 33.1358 41.3428ZM55.1691 33.3626C55.1691 34.6853 54.9634 35.839 54.5518 36.8236C54.1403 37.7936 53.5598 38.6019 52.8103 39.2486C52.0608 39.8805 51.1643 40.3582 50.1208 40.6815C49.0774 40.9901 47.931 41.1444 46.6818 41.1444C46.0646 41.1444 45.3812 41.115 44.6317 41.0563C43.8968 41.0122 43.2281 40.9166 42.6256 40.7697L42.6256 25.9555C43.2281 25.8086 43.8968 25.7131 44.6317 25.669C45.3812 25.6102 46.0646 25.5808 46.6818 25.5808C47.931 25.5808 49.0774 25.7424 50.1208 26.0658C51.1643 26.3744 52.0608 26.852 52.8103 27.4987C53.5598 28.1306 54.1403 28.9389 54.5518 29.9236C54.9634 30.8936 55.1691 32.0399 55.1691 33.3626ZM46.8582 39.2706C48.8863 39.2706 50.4001 38.7562 51.3994 37.7275C52.3988 36.684 52.8985 35.2291 52.8985 33.3626C52.8985 31.4961 52.3988 30.0485 51.3994 29.0198C50.4001 27.9763 48.8863 27.4546 46.8582 27.4546C46.2556 27.4546 45.7854 27.4619 45.4473 27.4766C45.124 27.4913 44.8962 27.506 44.7639 27.5207L44.7639 39.2045C44.8962 39.2192 45.124 39.2339 45.4473 39.2486C45.7854 39.2633 46.2556 39.2706 46.8582 39.2706ZM58.3411 25.7351L60.4795 25.7351L60.4795 41.0122L58.3411 41.0122L58.3411 25.7351ZM63.6441 33.3626C63.6441 32.0546 63.8352 30.9009 64.2173 29.9016C64.6141 28.9022 65.1432 28.0718 65.8045 27.4105C66.4806 26.7345 67.2595 26.2274 68.1413 25.8894C69.0378 25.5514 69.9857 25.3824 70.9851 25.3824C71.9697 25.3824 72.8956 25.5514 73.7627 25.8894C74.6445 26.2274 75.4161 26.7345 76.0774 27.4105C76.7388 28.0718 77.2605 28.9022 77.6426 29.9016C78.0394 30.9009 78.2378 32.0546 78.2378 33.3626C78.2378 34.6706 78.0394 35.8243 77.6426 36.8236C77.2605 37.823 76.7388 38.6607 76.0774 39.3368C75.4161 39.9981 74.6445 40.4978 73.7627 40.8358C72.8956 41.1738 71.9697 41.3428 70.9851 41.3428C69.9857 41.3428 69.0378 41.1738 68.1413 40.8358C67.2595 40.4978 66.4806 39.9981 65.8045 39.3368C65.1432 38.6607 64.6141 37.823 64.2173 36.8236C63.8352 35.8243 63.6441 34.6706 63.6441 33.3626ZM65.8927 33.3626C65.8927 34.2885 66.0103 35.1335 66.2454 35.8978C66.4806 36.6473 66.8112 37.2866 67.2374 37.8157C67.6783 38.3447 68.2074 38.7562 68.8247 39.0502C69.4566 39.3294 70.1621 39.469 70.941 39.469C71.7199 39.469 72.418 39.3294 73.0352 39.0502C73.6525 38.7562 74.1742 38.3447 74.6004 37.8157C75.0413 37.2866 75.3793 36.6473 75.6145 35.8978C75.8496 35.1335 75.9672 34.2885 75.9672 33.3626C75.9672 32.4367 75.8496 31.599 75.6145 30.8495C75.3793 30.0853 75.0413 29.4386 74.6004 28.9095C74.1742 28.3805 73.6525 27.9763 73.0352 27.6971C72.418 27.4032 71.7199 27.2562 70.941 27.2562C70.1621 27.2562 69.4566 27.4032 68.8247 27.6971C68.2074 27.9763 67.6783 28.3805 67.2374 28.9095C66.8112 29.4386 66.4806 30.0853 66.2454 30.8495C66.0103 31.599 65.8927 32.4367 65.8927 33.3626Z" fill="rgb(43.9887,50.5617,47.2752)" fill-rule="nonzero" />
	<path id="S" d="M7.58226 47.6757C5.87772 47.6757 4.35931 46.4462 3.02703 43.9873C1.67515 41.5284 0.764104 38.3864 0.293886 34.5615L2.14537 34.5615C2.59599 37.2936 3.30132 39.4565 4.26135 41.0503C5.24097 42.6895 6.34794 43.5092 7.58226 43.5092C8.34637 43.5092 9.08108 43.1677 9.78641 42.4846C10.5113 41.7561 11.1383 40.777 11.6673 39.5476C12.1963 38.3181 12.6077 36.8838 12.9016 35.2445C13.1955 33.6052 13.3424 31.8749 13.3424 30.0534C13.3424 28.3231 13.2053 26.6838 12.931 25.1356C12.6763 23.5419 12.304 22.1075 11.8142 20.8325C11.3244 19.6486 10.7562 18.6923 10.1097 17.9638C9.46313 17.2352 8.7676 16.8026 8.02309 16.666L8.02309 35.2445L7.37654 35.2445C6.37733 35.2445 5.4173 34.7891 4.49646 33.8784C3.59521 32.9222 2.81151 31.6244 2.14537 29.9851C1.45963 28.3459 0.93064 26.4561 0.558384 24.316C0.186128 22.1758 0 19.9218 0 17.5539C0 15.1861 0.186128 12.9549 0.558384 10.8602C0.950232 8.72005 1.49882 6.83033 2.20415 5.19105C2.90947 3.55177 3.71276 2.27677 4.61401 1.36606C5.53486 0.455355 6.50468 0 7.52349 0C9.24762 0 10.7856 1.20669 12.1375 3.62007C13.4698 6.07899 14.371 9.24371 14.8413 13.1142L12.9898 13.1142C12.5391 10.3821 11.8436 8.21916 10.9032 6.62542C9.88437 4.98614 8.7676 4.1665 7.55287 4.1665C6.76918 4.1665 6.02467 4.50801 5.31934 5.19105C4.63361 5.87408 4.02624 6.83032 3.49725 8.05978C2.96825 9.28924 2.54701 10.7464 2.23353 12.4312C1.93965 14.0705 1.79271 15.7781 1.79271 17.5539C1.79271 20.8325 2.22374 23.6785 3.0858 26.0918C3.96746 28.5963 5.04505 30.1445 6.31855 30.7365L6.31855 12.4312L7.87615 12.4312C8.85577 12.4312 9.78641 12.9093 10.6681 13.8656C11.5497 14.7763 12.3334 16.0513 13.0192 17.6905C13.6853 19.3298 14.2045 21.2195 14.5768 23.3597C14.949 25.4999 15.1351 27.7311 15.1351 30.0534C15.1351 32.4668 14.9392 34.7436 14.5474 36.8838C14.1751 38.9784 13.6363 40.8453 12.931 42.4846C12.2257 44.1239 11.4126 45.3989 10.4917 46.3096C9.57089 47.2203 8.60107 47.6757 7.58226 47.6757Z" fill="url(#paint_linear_0)" fill-rule="nonzero" transform="matrix(-4.37114e-08,1,-1,-4.37114e-08,79.4595,5.29736)" />
</svg>
